<svg width="461" height="100" viewBox="0 0 461 100" fill="none" xmlns="http://www.w3.org/2000/svg">
<path d="M98.9414 56.6313C100.399 46.0894 98.5056 35.3644 93.4944 26.0935C98.8624 20.5359 98.804 11.6487 93.3207 6.16378C90.6335 3.4766 87.0622 1.99565 83.2651 1.99565C79.5516 1.99565 76.0561 3.41029 73.3879 5.98853C66.1331 2.06512 57.98 0 49.6785 0C36.4099 0 23.9371 5.16438 14.5588 14.5443C-1.05118 30.1542 -4.44094 54.0752 6.00465 73.3733C3.42956 76.0368 2.01493 79.5339 2.01493 83.2505C2.01493 87.0492 3.4943 90.6205 6.1799 93.3061C8.86392 95.9902 12.4337 97.468 16.2324 97.468C19.9489 97.468 23.4461 96.0533 26.1096 93.4782C33.3485 97.3906 41.4843 99.4494 49.77 99.4494C56.5069 99.4494 63.0307 98.1106 69.1881 95.5007C75.2761 98.0979 81.8804 99.4683 88.6978 99.4683C101.982 99.4683 114.469 94.2945 123.86 84.902C124.785 83.9768 124.785 82.4785 123.86 81.5533L98.9414 56.6313ZM111.119 76.3857C110.821 76.6383 110.514 76.8783 110.21 77.1183C109.668 77.5446 109.119 77.9551 108.556 78.3467C108.238 78.5693 107.919 78.7903 107.593 79.0003C106.986 79.395 106.365 79.7613 105.737 80.115C105.448 80.2776 105.167 80.4497 104.875 80.6044C103.018 81.5801 101.081 82.3822 99.0771 83.0058C98.7756 83.1005 98.4661 83.1732 98.1614 83.26C97.4509 83.4589 96.7357 83.6437 96.011 83.7968C95.6463 83.8742 95.2785 83.9405 94.9106 84.0068C94.2206 84.1315 93.5244 84.2341 92.8234 84.3147C92.4492 84.3589 92.0734 84.4047 91.6961 84.4362C91.4877 84.4536 91.2745 84.4536 91.0661 84.4678L91.0693 62.031C91.505 61.9473 91.9329 61.8399 92.356 61.7104C92.4129 61.6931 92.4681 61.6694 92.525 61.6505C92.9954 61.4989 93.4533 61.3173 93.9033 61.1105C94.0343 61.0505 94.1622 60.9905 94.2901 60.9273C94.7811 60.681 95.2627 60.4142 95.7189 60.1048L111.583 75.9689C111.425 76.1047 111.277 76.2531 111.119 76.3857ZM84.5408 84.3115C83.8587 84.231 83.183 84.1315 82.5104 84.0115C82.1251 83.9436 81.7415 83.8742 81.3594 83.7921C80.6584 83.6421 79.9669 83.4637 79.2785 83.271C78.9533 83.1795 78.6233 83.1005 78.3012 83.0011C77.3081 82.6916 76.3277 82.349 75.3677 81.9511C75.3535 81.9464 75.3409 81.9401 75.3283 81.9338C74.3746 81.5375 73.4431 81.0891 72.5274 80.6076C72.2306 80.4513 71.9432 80.276 71.6511 80.1118C71.0243 79.7581 70.4054 79.3934 69.8007 79.0003C69.4771 78.7919 69.1613 78.5724 68.844 78.3514C68.2772 77.9567 67.7214 77.543 67.1751 77.112C66.8752 76.8752 66.5752 76.6399 66.2815 76.3921C66.1205 76.2579 65.9721 76.1063 65.8126 75.9673L81.6736 60.1032C81.6862 60.1111 81.7004 60.1174 81.7115 60.1269C81.9515 60.2895 82.2025 60.4332 82.4535 60.5768C82.5625 60.64 82.6667 60.711 82.7772 60.771C83.1419 60.9668 83.5177 61.1452 83.8998 61.3031C83.944 61.3221 83.9898 61.3331 84.034 61.3505C84.3734 61.4863 84.7176 61.6126 85.0697 61.7183C85.2212 61.7641 85.3776 61.7925 85.5307 61.8336C85.7802 61.8983 86.028 61.9662 86.2838 62.0167C86.2996 62.0199 86.317 62.0262 86.3328 62.0294L86.328 84.4678C86.1212 84.4536 85.9112 84.4552 85.706 84.4362C85.3144 84.4047 84.9276 84.3573 84.5408 84.3115ZM54.1229 45.5874C54.2034 44.9006 54.3045 44.2201 54.4244 43.5443C54.4923 43.1623 54.5618 42.7818 54.6423 42.4028C54.7923 41.6955 54.9723 40.9961 55.1665 40.303C55.2565 39.9841 55.3339 39.6604 55.4317 39.3446C56.0538 37.3458 56.8543 35.4102 57.8284 33.5566C57.9816 33.2661 58.1537 32.9851 58.3147 32.6993C58.6699 32.0678 59.0394 31.4426 59.4341 30.8315C59.6425 30.511 59.8604 30.1968 60.0798 29.8811C60.4746 29.3127 60.8898 28.7554 61.3208 28.2075C61.5576 27.9075 61.7945 27.606 62.0423 27.3123C62.1765 27.1528 62.3265 27.0044 62.4639 26.8481L78.3265 42.7186C78.0154 43.1781 77.7486 43.6596 77.5039 44.1506C77.4407 44.2785 77.3807 44.4064 77.3207 44.5359C77.1139 44.989 76.9308 45.45 76.7792 45.9237C76.7618 45.9773 76.7382 46.0294 76.7224 46.0847C76.5945 46.5062 76.4855 46.9341 76.4034 47.3683L53.9697 47.3667C53.9839 47.1599 53.9824 46.9499 53.9997 46.7431C54.0313 46.3562 54.0771 45.9726 54.1229 45.5874ZM59.4325 68.6384C59.0378 68.0305 58.6715 67.4069 58.3163 66.7769C58.1537 66.488 57.9816 66.2054 57.8268 65.9117C56.8543 64.0598 56.0538 62.1257 55.4317 60.1269C55.3323 59.8111 55.2565 59.489 55.1665 59.1701C54.9723 58.4754 54.7923 57.776 54.6407 57.0671C54.5602 56.6897 54.4923 56.3108 54.4244 55.9303C54.3029 55.253 54.2034 54.5709 54.1229 53.8842C54.0771 53.5005 54.0313 53.1168 53.9982 52.73C53.9808 52.5232 53.9824 52.3132 53.9682 52.1048L76.4034 52.1064C76.4066 52.1222 76.4113 52.1364 76.4145 52.1506C76.465 52.4079 76.5345 52.6606 76.6008 52.9132C76.6387 53.0616 76.6687 53.2131 76.7129 53.36C76.8124 53.6915 76.9339 54.0183 77.0618 54.342C77.1281 54.5078 77.2023 54.672 77.275 54.8362C77.395 55.1062 77.5149 55.3777 77.6555 55.6398C77.7391 55.7961 77.8402 55.9445 77.9302 56.0993C78.0502 56.3029 78.1654 56.5098 78.298 56.7071C78.3075 56.7213 78.3154 56.7387 78.3265 56.7529L62.4607 72.6202C62.3218 72.4608 62.1702 72.3123 62.036 72.1513C61.7897 71.8592 61.5561 71.5608 61.3192 71.2624C60.8882 70.7146 60.473 70.1572 60.0767 69.5888C59.8588 69.2747 59.6409 68.9589 59.4325 68.6384ZM49.77 94.7129C41.6643 94.7129 33.7164 92.5372 26.7853 88.4181L24.9696 87.3381L23.555 89.2012C23.3608 89.4585 23.1714 89.7222 22.9361 89.9574C21.1473 91.7463 18.768 92.7315 16.2339 92.7315C13.7015 92.7315 11.319 91.7463 9.53019 89.9574C7.73979 88.167 6.75302 85.7846 6.75302 83.2505C6.75302 80.7181 7.73821 78.3372 9.52704 76.5468C9.77807 76.2958 10.0607 76.0968 10.4443 75.8126L12.1605 74.5385L11.0696 72.7007C0.543447 54.9814 3.35536 32.4435 17.9091 17.8914C26.3938 9.40672 37.6761 4.73493 49.68 4.73493C57.8032 4.73493 65.77 6.91847 72.7184 11.0503L74.553 12.1413L75.9282 10.2972C76.1303 10.0256 76.3229 9.7509 76.5645 9.50934C78.3565 7.71736 80.7374 6.73059 83.2682 6.73059C85.7991 6.73059 88.1816 7.71736 89.9751 9.51092C93.6712 13.207 93.6712 19.2223 89.9783 22.9152C89.7494 23.1442 89.4952 23.3257 89.2441 23.5168L87.359 24.9551L88.4373 26.7676C93.4691 35.2286 95.5595 45.1879 94.4101 55.0288L94.2033 55.2356C92.7334 56.704 90.7819 57.5123 88.7026 57.5139C86.6169 57.5123 84.6592 56.7024 83.1924 55.2372C81.7289 53.7594 80.9221 51.8064 80.9189 49.7334C80.9189 47.6604 81.7289 45.7042 83.1972 44.228L84.8613 42.5528L55.2123 12.8881L53.5371 14.5632C44.1431 23.9557 38.9692 36.4459 38.9692 49.7318C38.9692 63.0193 44.1431 75.5079 53.5371 84.8973C54.2224 85.5825 54.9297 86.2393 55.6465 86.8787C55.8438 87.0555 56.0475 87.2245 56.248 87.3981C56.8116 87.886 57.3832 88.3581 57.9658 88.8175C58.1473 88.9612 58.3289 89.1049 58.5136 89.2454C60.1004 90.4627 61.7487 91.5836 63.4554 92.5941C59.0489 94.0024 54.4655 94.7129 49.77 94.7129ZM88.6994 94.7303C82.6935 94.7303 76.8676 93.5603 71.4806 91.331L70.2033 90.7547C67.7419 89.6464 65.4037 88.3249 63.1996 86.8077C63.1412 86.7666 63.0828 86.7256 63.0244 86.6845C61.976 85.9567 60.9593 85.183 59.9741 84.3652C59.892 84.2973 59.8146 84.2263 59.7341 84.1584C58.7505 83.3311 57.7953 82.4659 56.8811 81.5501C48.3822 73.056 43.701 61.7562 43.701 49.735C43.701 38.5063 47.7854 27.906 55.2502 19.6328L59.082 23.4678C59.0252 23.531 58.9778 23.6005 58.9226 23.6652C58.1868 24.5036 57.4827 25.3624 56.8259 26.2498C56.799 26.2861 56.7738 26.324 56.7469 26.3603C56.0901 27.2555 55.4759 28.1744 54.8997 29.1169C54.8586 29.1832 54.8144 29.248 54.7749 29.3143C54.216 30.2379 53.7061 31.1868 53.2277 32.1483C53.1645 32.2762 53.0966 32.4025 53.0351 32.5304C52.5819 33.4682 52.1714 34.425 51.7941 35.3944C51.7325 35.5523 51.671 35.7101 51.611 35.868C51.251 36.8327 50.9305 37.8116 50.6463 38.8047C50.5989 38.9704 50.5531 39.1378 50.5073 39.3052C50.2358 40.3077 49.999 41.3213 49.8063 42.3476C49.7779 42.4991 49.7542 42.6523 49.7274 42.8054C49.5411 43.8601 49.3927 44.9242 49.2916 45.9994C49.2822 46.1036 49.2774 46.2094 49.268 46.3152C49.1717 47.4472 49.1132 48.5871 49.1132 49.7365C49.1132 53.041 49.5143 56.284 50.2958 59.4085C52.0136 66.2828 55.5628 72.5886 60.7003 77.7278C60.7003 77.7278 60.7035 77.7293 60.7051 77.7325C62.0329 79.0587 63.4412 80.2728 64.9142 81.3843C64.9963 81.4459 65.0753 81.5138 65.1574 81.5738C65.3863 81.7443 65.6231 81.9022 65.8552 82.0664C66.152 82.2764 66.4441 82.4927 66.7441 82.6932C66.9115 82.8053 67.0851 82.9063 67.2525 83.0153C67.6267 83.2569 67.9993 83.5016 68.3798 83.7289C68.3845 83.7321 68.3893 83.7352 68.3956 83.7384C74.4678 87.3776 81.4289 89.3212 88.6852 89.3212H88.6978C89.8472 89.3212 90.9872 89.2627 92.1192 89.1664C92.2234 89.157 92.3276 89.1538 92.4302 89.1427C93.507 89.0433 94.5711 88.8917 95.6289 88.707C95.7789 88.6801 95.9289 88.6565 96.0789 88.6296C97.1067 88.4354 98.1219 88.2002 99.1261 87.927C99.2919 87.8813 99.4561 87.837 99.6218 87.7897C100.615 87.5055 101.595 87.1834 102.56 86.8234C102.718 86.7634 102.874 86.7019 103.031 86.6419C104.003 86.2645 104.96 85.8524 105.899 85.3993C106.026 85.3377 106.149 85.273 106.275 85.2099C107.24 84.7299 108.187 84.2199 109.112 83.661C109.18 83.62 109.245 83.5758 109.311 83.5331C110.249 82.9584 111.168 82.3459 112.06 81.6891C112.098 81.6606 112.139 81.6354 112.177 81.607C113.064 80.9502 113.92 80.2476 114.757 79.5134C114.821 79.4566 114.891 79.4092 114.956 79.3508L118.789 83.1842C110.522 90.6474 99.9234 94.7303 88.6994 94.7303Z" fill="#D72323"/>
<path d="M31.5755 51.047L31.5566 51.0612C30.5145 51.8522 30.3219 53.3316 31.1145 54.372C31.5787 54.983 32.286 55.3035 33.0012 55.3035C33.5048 55.3035 34.0132 55.1441 34.4427 54.8172C35.4847 54.0262 35.6868 52.5406 34.8958 51.4985C34.1016 50.4565 32.6175 50.2544 31.5755 51.047Z" fill="#D72323"/>
<path d="M17.5838 41.5455L17.5649 41.5597C16.5039 42.3239 16.2718 43.797 17.036 44.8579C17.497 45.4989 18.2233 45.8384 18.9606 45.8384C19.4437 45.8384 19.9316 45.6931 20.3515 45.39C21.4125 44.6258 21.6541 43.1465 20.8899 42.0839C20.1258 41.0229 18.6448 40.7814 17.5838 41.5455Z" fill="#D72323"/>
<path d="M31.5755 69.232L31.5566 69.2462C30.5145 70.0372 30.3219 71.5166 31.1145 72.5571C31.5787 73.1681 32.286 73.4886 33.0012 73.4886C33.5048 73.4886 34.0132 73.3291 34.4427 73.0023C35.4847 72.2113 35.6868 70.7256 34.8958 69.6836C34.1016 68.6431 32.6175 68.441 31.5755 69.232Z" fill="#D72323"/>
<path d="M17.5838 59.7322L17.5649 59.7464C16.5039 60.5105 16.2718 61.9836 17.036 63.0446C17.497 63.6856 18.2233 64.025 18.9606 64.025C19.4437 64.025 19.9316 63.8798 20.3515 63.5766C21.4125 62.8125 21.6541 61.3331 20.8899 60.2705C20.1258 59.208 18.6448 58.9664 17.5838 59.7322Z" fill="#D72323"/>
<path d="M176.014 9.16071L177.443 12.1839L162.822 12.8435L162.932 18.9447L173.54 17.9004L175.079 20.9785L173.595 22.9573L174.475 24.2765L174.31 27.4646L163.097 28.6189L163.316 44.1744L159.908 45.9333L156.72 43.4598L153.642 46.2081L153.203 13.2282H151.444L149.905 9.65541L151.554 6.57729L149.465 3.66406L177.223 2.2899L175.794 4.92829L177.443 6.90709L176.014 9.16071ZM206.245 19.3845C205.201 13.1183 201.243 10.9196 195.472 13.9978C185.963 19.0547 184.863 28.6188 187.941 32.6314C190.91 36.4791 195.747 35.8744 199.155 33.7857C205.036 30.1579 207.07 24.2765 206.245 19.3845ZM215.809 15.9216C217.733 27.9043 212.072 36.8638 208.114 39.777C195.472 49.0664 185.138 46.0432 179.477 37.6334C173.1 28.1241 179.751 8.39118 195.472 3.38923C197.176 2.83957 200.144 2.50977 203.112 2.7846L203.717 5.42299L204.926 5.20313L205.97 6.08259L206.74 4.1038C211.632 6.63225 214.875 10.26 215.809 15.9216ZM247.745 19.3845C246.701 13.1183 242.743 10.9196 236.972 13.9978C227.462 19.0547 226.363 28.6188 229.441 32.6314C232.409 36.4791 237.246 35.8744 240.654 33.7857C246.536 30.1579 248.569 24.2765 247.745 19.3845ZM257.309 15.9216C259.233 27.9043 253.571 36.8638 249.614 39.777C236.972 49.0664 226.638 46.0432 220.976 37.6334C214.6 28.1241 221.251 8.39118 236.972 3.38923C238.675 2.83957 241.644 2.50977 244.612 2.7846L245.216 5.42299L246.426 5.20313L247.47 6.08259L248.24 4.1038C253.132 6.63225 256.375 10.26 257.309 15.9216ZM283.858 21.748C285.892 17.4057 285.342 13.7779 278.801 12.4037C276.877 11.964 274.953 12.2938 273.03 12.4587L273.249 33.5109C277.592 30.3778 281.934 25.8705 283.858 21.748ZM294.521 15.262C295.731 28.8937 279.351 41.8658 270.226 46.428C269.457 45.6585 266.818 44.9989 266.818 44.9989L266.269 41.7558L264.07 41.2611L263.52 13.4481L260.222 13.8878L261.322 10.9196L259.838 9.05078L261.102 6.74219L259.783 4.1038C265.169 3.22433 273.744 2.23494 280.67 3.16937C287.486 4.04883 293.807 7.07199 294.521 15.262ZM327.117 36.2592C324.038 43.7346 316.178 45.9883 311.231 45.9883C304.086 45.9883 298.424 42.2505 296.225 40.4916L297.16 37.6334L298.204 36.9188L297.105 35.1599L299.468 31.697C302.382 34.0056 305.954 36.3691 311.011 36.3691C314.639 36.3691 318.157 34.2804 319.036 31.2023C317.937 30.8175 316.563 30.5976 314.859 30.4327C312.715 30.2129 310.407 30.1029 308.208 29.7731C303.866 29.1685 299.139 27.6844 298.369 22.4076C297.105 13.558 311.396 2.56473 317.607 1.24554L318.487 3.33427L320.521 3.4442L321.29 5.42299L323.379 6.57729L323.214 16.6362L319.586 17.9004L316.728 16.0315L314.089 17.5156L314.144 13.0084C311.891 14.4375 309.912 16.856 308.318 20.099C310.517 20.5388 312.825 20.7586 315.079 21.0335C318.102 21.3633 321.4 21.9129 323.983 23.1772C328.106 25.2659 330.03 29.0036 327.117 36.2592ZM359.382 40.3267L360.646 43.0201L338.33 46.8128L338 44.2293L335.526 44.2843L335.911 41.536L333.273 41.426L334.097 13.1183H331.349L332.668 10.37L331.294 8.61105L332.118 6.52232L331.569 3.71903L357.183 2.4548L358.118 6.79715L356.579 8.50111L357.843 12.0739L343.771 12.7335L343.552 20.154L356.359 18.6149L355.149 22.1878L357.073 23.8917L356.029 28.289L343.277 29.8831L343.112 36.1493L359.822 33.4009L358.722 36.644L360.426 38.293L359.382 40.3267ZM390.713 3.49917L393.516 3.38923L391.922 45.1088L389.613 42.8002L388.734 45.9883L373.673 24.3864L374.388 43.7346L371.42 44.2293L369.166 43.0201L368.067 44.834L364.659 44.5042L363.504 3.49917L366.308 4.5985L368.506 2.6197L372.409 3.55413L383.347 20.5388L383.897 2.72963L386.425 3.71903L388.624 1.52037L390.713 3.49917ZM427.32 36.2592C424.242 43.7346 416.382 45.9883 411.435 45.9883C404.289 45.9883 398.628 42.2505 396.429 40.4916L397.364 37.6334L398.408 36.9188L397.309 35.1599L399.672 31.697C402.586 34.0056 406.158 36.3691 411.215 36.3691C414.843 36.3691 418.361 34.2804 419.24 31.2023C418.141 30.8175 416.767 30.5976 415.063 30.4327C412.919 30.2129 410.611 30.1029 408.412 29.7731C404.07 29.1685 399.342 27.6844 398.573 22.4076C397.309 13.558 411.6 2.56473 417.811 1.24554L418.691 3.33427L420.724 3.4442L421.494 5.42299L423.583 6.57729L423.418 16.6362L419.79 17.9004L416.932 16.0315L414.293 17.5156L414.348 13.0084C412.095 14.4375 410.116 16.856 408.522 20.099C410.721 20.5388 413.029 20.7586 415.283 21.0335C418.306 21.3633 421.604 21.9129 424.187 23.1772C428.31 25.2659 430.234 29.0036 427.32 36.2592ZM459.586 40.3267L460.85 43.0201L438.534 46.8128L438.204 44.2293L435.73 44.2843L436.115 41.536L433.477 41.426L434.301 13.1183H431.553L432.872 10.37L431.498 8.61105L432.322 6.52232L431.773 3.71903L457.387 2.4548L458.322 6.79715L456.782 8.50111L458.047 12.0739L443.975 12.7335L443.755 20.154L456.563 18.6149L455.353 22.1878L457.277 23.8917L456.233 28.289L443.481 29.8831L443.316 36.1493L460.026 33.4009L458.926 36.644L460.63 38.293L459.586 40.3267Z" fill="#111111"/>
<path d="M162.432 99.6715H161.615C159.017 99.6715 156.938 97.5929 156.938 94.9947V77.1038C156.938 74.5055 159.017 72.3898 161.615 72.3898H162.432C165.03 72.3898 167.108 74.5055 167.108 77.1038V78.9968H163.471V77.1038C163.471 76.4728 163.025 76.0274 162.432 76.0274H161.615C161.058 76.0274 160.539 76.4728 160.539 77.1038V94.9947C160.539 95.5514 161.058 96.0711 161.615 96.0711H162.432C163.025 96.0711 163.471 95.5514 163.471 94.9947V85.344H161.392V81.7436H167.108V94.9947C167.108 97.5929 165.03 99.6715 162.432 99.6715ZM177.195 72.7981V99.2261H173.669V72.7981H177.195ZM192.479 81.9663V85.4554H187.245V99.3004H183.756V72.8724H192.404V76.3986H187.245V81.9663H192.479ZM211.882 72.7981V76.3614H207.465V99.4117H203.902V76.3614H199.039V72.7981H211.882ZM243.711 72.8724L238.737 88.9816V99.3746H235.136V88.9444L230.571 72.8724H234.283L236.992 82.4117L239.962 72.8724H243.711ZM255.282 99.4117C252.498 99.4117 250.271 97.1475 250.271 94.4008V77.7348C250.271 74.9881 252.498 72.761 255.282 72.761C258.029 72.761 260.256 74.9881 260.256 77.7348V94.4008C260.256 97.1475 258.029 99.4117 255.282 99.4117ZM255.282 76.2872C254.466 76.2872 253.835 76.9553 253.835 77.7348V94.4008C253.835 95.2174 254.466 95.8484 255.282 95.8484C256.062 95.8484 256.73 95.2174 256.73 94.4008V77.7348C256.73 76.9553 256.062 76.2872 255.282 76.2872ZM272.273 99.4488C269.266 99.4488 266.817 96.999 266.817 93.9925V72.9095H270.343V93.9925C270.343 95.0689 271.197 95.9597 272.273 95.9597C273.349 95.9597 274.203 95.0689 274.203 93.9925V72.9095H277.729V93.9925C277.729 96.999 275.28 99.4488 272.273 99.4488ZM294.46 99.4488H290.674L288.633 93.844H287.816V99.4488H284.29V72.8724H289.82C292.27 72.8724 294.238 74.8396 294.238 77.2894V89.427C294.238 91.023 293.421 92.3964 292.159 93.1759L294.46 99.4488ZM287.816 76.3986V90.3178H289.82C290.303 90.3178 290.711 89.9095 290.711 89.427V77.2894C290.711 76.8069 290.303 76.3986 289.82 76.3986H287.816ZM318.234 99.5973C315.413 99.5973 313.149 97.296 313.149 94.5121V90.4663H316.75V94.5121C316.75 95.3287 317.418 95.9969 318.234 95.9969C319.051 95.9969 319.682 95.3287 319.682 94.5121V90.9859L313.149 81.9663V77.3636C313.149 74.5427 315.413 72.2413 318.234 72.2413C321.018 72.2413 323.282 74.5427 323.282 77.3636V81.3724H319.682V77.3636C319.682 76.5099 319.051 75.8789 318.234 75.8789C317.418 75.8789 316.75 76.5099 316.75 77.3636V80.7414L323.282 89.761V94.5121C323.282 97.296 321.018 99.5973 318.234 99.5973ZM338.491 85.3811H333.369V95.8484H338.529V99.3746H329.843V72.8724H338.529V76.3986H333.369V81.8549H338.491V85.3811ZM353.701 93.2872L353.849 72.7239H357.412L357.19 99.5231H351.659L348.653 78.7741V99.5231H345.089V72.7239H350.842L353.701 93.2872ZM369.058 99.5973C366.237 99.5973 363.973 97.296 363.973 94.5121V90.4663H367.573V94.5121C367.573 95.3287 368.242 95.9969 369.058 95.9969C369.875 95.9969 370.506 95.3287 370.506 94.5121V90.9859L363.973 81.9663V77.3636C363.973 74.5427 366.237 72.2413 369.058 72.2413C371.842 72.2413 374.106 74.5427 374.106 77.3636V81.3724H370.506V77.3636C370.506 76.5099 369.875 75.8789 369.058 75.8789C368.242 75.8789 367.573 76.5099 367.573 77.3636V80.7414L374.106 89.761V94.5121C374.106 97.296 371.842 99.5973 369.058 99.5973ZM389.315 85.3811H384.193V95.8484H389.352V99.3746H380.667V72.8724H389.352V76.3986H384.193V81.8549H389.315V85.3811ZM400.998 99.5973C398.177 99.5973 395.913 97.296 395.913 94.5121V90.4663H399.513V94.5121C399.513 95.3287 400.182 95.9969 400.998 95.9969C401.815 95.9969 402.446 95.3287 402.446 94.5121V90.9859L395.913 81.9663V77.3636C395.913 74.5427 398.177 72.2413 400.998 72.2413C403.782 72.2413 406.046 74.5427 406.046 77.3636V81.3724H402.446V77.3636C402.446 76.5099 401.815 75.8789 400.998 75.8789C400.182 75.8789 399.513 76.5099 399.513 77.3636V80.7414L406.046 89.761V94.5121C406.046 97.296 403.782 99.5973 400.998 99.5973Z" fill="#111111"/>
</svg>
